<svg xmlns="http://www.w3.org/2000/svg" viewBox="0 0 100 100" width="100" height="100" role="img" aria-label="Mile High Nomad Group">
 <title>Mile High Nomad Group</title>
 <rect width="100" height="100" rx="20" fill="#1C2448"/>
 <g transform="translate(8.000 26.443) scale(0.141653) translate(-216.500 -247.200)">
   <path fill="#fafafb" d=" M 513.70 247.98 Q 512.42 251.37 515.24 256.25 A 1.50 1.47 -62.8 0 1 515.42 256.83 L 533.98 448.03 A 2.90 2.88 -75.5 0 0 535.20 450.12 L 559.50 466.98 A 1.82 1.82 0.0 0 0 561.79 466.80 L 638.90 392.92 L 648.07 384.23 A 1.37 1.36 48.6 0 1 650.06 384.36 L 809.53 577.90 A 0.19 0.18 -22.2 0 1 809.40 578.20 Q 802.52 578.64 796.34 577.70 C 790.68 571.93 784.28 565.96 779.18 560.80 Q 748.32 529.60 717.95 497.92 C 702.46 481.77 672.32 451.24 650.18 427.21 L 647.98 424.72 A 0.34 0.34 0.0 0 0 647.50 424.70 L 581.54 485.55 A 0.40 0.40 0.0 0 0 581.57 486.16 L 673.07 557.03 L 696.43 578.89 Q 686.30 575.07 676.58 569.43 Q 644.50 550.80 633.92 544.35 C 604.05 526.15 579.85 510.94 550.29 492.92 Q 531.49 481.45 513.35 469.59 A 0.43 0.42 43.5 0 0 512.88 469.60 Q 507.46 473.30 502.94 476.18 Q 433.57 520.36 369.05 558.54 Q 353.42 567.79 338.96 575.22 Q 334.51 577.51 329.74 579.03 Q 329.24 579.19 329.07 578.69 Q 328.98 578.42 329.40 578.15 Q 339.42 567.29 350.67 557.83 C 362.59 549.01 374.90 539.42 386.08 531.03 Q 408.84 513.95 439.40 489.67 Q 441.40 488.08 443.93 486.17 A 0.74 0.74 0.0 0 0 443.97 485.02 Q 411.28 456.23 378.96 425.10 A 0.98 0.96 -42.9 0 0 377.65 425.06 Q 376.69 425.89 376.53 426.72 L 242.43 565.45 L 230.66 577.64 A 1.70 1.69 -68.0 0 1 229.44 578.16 L 216.70 578.16 A 0.25 0.25 0.0 0 1 216.51 577.75 L 375.96 384.98 A 1.31 1.31 0.0 0 1 377.81 384.80 L 385.84 391.44 A 1.24 1.23 -48.8 0 0 387.54 391.32 Q 399.88 377.92 406.43 370.43 Q 451.94 318.38 470.59 296.60 Q 495.82 267.13 504.79 256.81 Q 508.61 252.42 512.42 247.33 A 0.56 0.56 0.0 0 1 513.17 247.21 Q 513.72 247.60 513.70 247.98 Z" />
   <path fill="#9699a5" d=" M 513.70 247.98 Q 526.85 264.53 539.95 280.05 Q 563.69 308.16 587.69 336.06 Q 609.03 360.88 638.90 392.92 L 561.79 466.80 A 1.82 1.82 0.0 0 1 559.50 466.98 L 535.20 450.12 A 2.90 2.88 -75.5 0 1 533.98 448.03 L 515.42 256.83 A 1.50 1.47 -62.8 0 0 515.24 256.25 Q 512.42 251.37 513.70 247.98 Z" />
   <path fill="#184e8d" d=" M 650.18 427.21 Q 649.41 426.95 649.07 427.42 Q 648.78 427.83 648.96 428.61 Q 650.95 437.13 652.05 445.51 C 653.60 457.40 655.94 465.80 657.81 477.39 C 659.50 487.84 662.54 500.44 664.21 509.56 C 666.82 523.75 670.10 536.87 673.64 551.68 Q 674.25 554.20 673.07 557.03 L 581.57 486.16 A 0.40 0.40 0.0 0 1 581.54 485.55 L 647.50 424.70 A 0.34 0.34 0.0 0 1 647.98 424.72 L 650.18 427.21 Z" />
   <path fill="#184e8d" d=" M 350.67 557.83 Q 349.49 557.60 349.16 557.72 A 0.78 0.78 0.0 0 1 348.16 556.70 Q 349.85 552.48 350.65 548.98 Q 357.75 518.19 371.09 453.96 Q 372.00 449.57 372.87 443.77 Q 374.04 435.99 374.86 433.62 Q 376.60 428.60 376.53 426.72 Q 376.69 425.89 377.65 425.06 A 0.98 0.96 -42.9 0 1 378.96 425.10 Q 411.28 456.23 443.97 485.02 A 0.74 0.74 0.0 0 1 443.93 486.17 Q 441.40 488.08 439.40 489.67 Q 408.84 513.95 386.08 531.03 C 374.90 539.42 362.59 549.01 350.67 557.83 Z" />
   <path fill="#1b2f5d" d=" M 376.53 426.72 Q 376.60 428.60 374.86 433.62 Q 374.04 435.99 372.87 443.77 Q 372.00 449.57 371.09 453.96 Q 357.75 518.19 350.65 548.98 Q 349.85 552.48 348.16 556.70 A 0.78 0.78 0.0 0 0 349.16 557.72 Q 349.49 557.60 350.67 557.83 Q 339.42 567.29 329.40 578.15 Q 323.03 578.83 318.99 578.79 Q 289.86 578.53 251.27 578.72 Q 245.42 578.75 235.50 578.06 A 0.34 0.34 0.0 0 1 235.23 577.56 C 235.78 576.54 236.29 575.28 237.02 574.45 Q 240.58 570.37 242.43 565.45 L 376.53 426.72 Z" />
   <path fill="#1b2f5d" d=" M 650.18 427.21 C 672.32 451.24 702.46 481.77 717.95 497.92 Q 748.32 529.60 779.18 560.80 C 784.28 565.96 790.68 571.93 796.34 577.70 Q 790.32 578.45 788.06 578.52 C 767.76 579.11 744.54 578.46 727.27 578.63 Q 711.62 578.79 696.43 578.89 L 673.07 557.03 Q 674.25 554.20 673.64 551.68 C 670.10 536.87 666.82 523.75 664.21 509.56 C 662.54 500.44 659.50 487.84 657.81 477.39 C 655.94 465.80 653.60 457.40 652.05 445.51 Q 650.95 437.13 648.96 428.61 Q 648.78 427.83 649.07 427.42 Q 649.41 426.95 650.18 427.21 Z" />
   <path fill="#184e8d" d=" M 516.54 493.07 Q 519.89 501.78 522.15 512.11 Q 528.29 540.24 537.47 579.25 L 447.30 578.90 A 0.31 0.31 0.0 0 1 447.06 578.39 Q 454.86 568.42 476.64 540.03 Q 482.61 532.24 490.85 520.51 C 499.53 508.15 503.97 501.56 508.76 495.72 Q 511.14 492.83 513.06 489.04 A 0.73 0.73 0.0 0 1 514.35 489.02 L 516.54 493.07 Z" />
   <path fill="#1b2f5d" d=" M 537.47 579.25 Q 528.29 540.24 522.15 512.11 Q 519.89 501.78 516.54 493.07 Q 520.47 495.50 522.90 498.60 Q 526.06 502.64 534.33 514.26 Q 544.21 528.17 550.86 536.47 Q 555.23 541.94 561.64 550.88 C 566.15 557.19 572.89 564.88 578.05 572.25 Q 580.64 575.95 583.60 579.25 A 0.30 0.30 0.0 0 1 583.36 579.75 Q 564.55 578.77 545.19 579.40 C 542.89 579.47 540.04 579.20 537.47 579.25 Z" />
 </g>
</svg>