<svg xmlns="http://www.w3.org/2000/svg" viewBox="0 0 408.7 100" width="408.7" height="100" role="img" aria-label="Mile High Nomad Group">
 <title>Mile High Nomad Group</title>
 <mask id="wm" maskUnits="userSpaceOnUse" x="124.0" y="11.0" width="284.7" height="78">
  <rect x="124.0" y="11.0" width="284.7" height="78" fill="#000"/>
  <g transform="translate(124.000 11.000) scale(0.467346) translate(-212.200 -609.000)">
   <path fill="#fff" d=" M 738.52 648.45 L 738.52 687.61 A 1.53 1.53 0.0 0 1 737.90 688.84 C 722.03 700.62 701.21 702.53 684.17 693.15 C 658.33 678.93 652.50 645.61 671.69 623.25 C 687.59 604.72 714.60 602.60 734.22 616.44 A 0.94 0.93 -55.3 0 1 734.45 617.74 L 724.27 632.41 A 0.39 0.39 0.0 0 1 723.69 632.48 Q 713.91 624.07 700.76 627.03 C 685.11 630.55 676.51 646.73 681.12 661.43 C 686.41 678.30 704.98 685.25 721.17 678.08 A 0.71 0.68 78.5 0 0 721.58 677.44 L 721.58 664.93 A 0.49 0.48 90.0 0 0 721.10 664.44 L 705.84 664.44 A 0.54 0.53 90.0 0 1 705.31 663.90 L 705.31 648.29 A 0.46 0.45 90.0 0 1 705.76 647.83 L 737.90 647.83 A 0.62 0.62 0.0 0 1 738.52 648.45 Z" />
   <rect fill="#fff" x="-9.34" y="-44.77" transform="translate(336.56,653.76) rotate(-0.1)" width="18.68" height="89.54" rx="0.46"/>
   <path fill="#fff" d=" M 383.73 680.37 L 425.19 680.37 A 0.30 0.30 0.0 0 1 425.49 680.67 L 425.49 698.09 A 0.30 0.30 0.0 0 1 425.19 698.39 L 364.33 698.39 A 0.30 0.30 0.0 0 1 364.03 698.09 L 364.03 609.33 A 0.30 0.30 0.0 0 1 364.33 609.03 L 383.13 609.03 A 0.30 0.30 0.0 0 1 383.43 609.33 L 383.43 680.07 A 0.30 0.30 0.0 0 0 383.73 680.37 Z" />
   <path fill="#fff" d=" M 489.81 662.59 L 456.12 662.59 A 0.40 0.40 0.0 0 0 455.72 662.99 L 455.72 680.37 A 0.40 0.40 0.0 0 0 456.12 680.77 L 495.38 680.77 A 0.40 0.40 0.0 0 1 495.78 681.17 L 495.78 697.93 A 0.40 0.40 0.0 0 1 495.38 698.33 L 437.26 698.33 A 0.40 0.40 0.0 0 1 436.86 697.93 L 436.86 609.46 A 0.40 0.40 0.0 0 1 437.26 609.06 L 494.60 609.06 A 0.40 0.40 0.0 0 1 495.00 609.46 L 495.00 626.22 A 0.40 0.40 0.0 0 1 494.60 626.62 L 455.87 626.62 A 0.40 0.40 0.0 0 0 455.47 627.02 L 455.47 644.83 A 0.40 0.40 0.0 0 0 455.87 645.23 L 489.81 645.23 A 0.40 0.40 0.0 0 1 490.21 645.63 L 490.21 662.19 A 0.40 0.40 0.0 0 1 489.81 662.59 Z" />
   <path fill="#fff" d=" M 578.47 644.96 Q 585.85 644.96 591.59 644.93 A 0.38 0.38 0.0 0 0 591.97 644.55 L 591.97 609.38 A 0.31 0.31 0.0 0 1 592.28 609.07 L 610.60 609.07 A 0.33 0.32 0.0 0 1 610.93 609.39 L 610.93 698.27 A 0.28 0.28 0.0 0 1 610.65 698.55 L 592.61 698.55 A 0.60 0.60 0.0 0 1 592.01 697.95 L 591.97 663.43 A 0.65 0.65 0.0 0 0 591.42 662.79 Q 591.23 662.76 578.48 662.76 Q 565.72 662.76 565.53 662.79 A 0.65 0.65 0.0 0 0 564.98 663.43 L 564.94 697.95 A 0.60 0.60 0.0 0 1 564.34 698.55 L 546.30 698.55 A 0.28 0.28 0.0 0 1 546.02 698.27 L 546.02 609.39 A 0.33 0.32 -0.0 0 1 546.35 609.07 L 564.67 609.07 A 0.31 0.31 0.0 0 1 564.98 609.38 L 564.98 644.55 A 0.38 0.38 0.0 0 0 565.36 644.93 Q 571.10 644.96 578.47 644.96 Z" />
   <path fill="#fff" d=" M 786.28 645.09 Q 792.61 645.09 798.99 645.13 A 0.49 0.49 0.0 0 0 799.49 644.64 L 799.49 609.59 A 0.61 0.61 0.0 0 1 800.10 608.98 L 817.87 608.98 A 0.64 0.64 0.0 0 1 818.51 609.62 L 818.51 698.11 A 0.47 0.46 -0.0 0 1 818.04 698.57 L 800.14 698.57 A 0.62 0.62 0.0 0 1 799.52 697.95 L 799.52 663.42 A 0.48 0.46 0.3 0 0 799.05 662.96 Q 789.96 662.95 786.28 662.95 Q 782.60 662.95 773.52 662.95 A 0.48 0.46 -0.3 0 0 773.04 663.42 L 773.04 697.95 A 0.62 0.62 0.0 0 1 772.42 698.57 L 754.52 698.57 A 0.47 0.46 0.0 0 1 754.05 698.10 L 754.06 609.61 A 0.64 0.64 0.0 0 1 754.70 608.98 L 772.47 608.98 A 0.61 0.61 0.0 0 1 773.08 609.59 L 773.08 644.64 A 0.49 0.49 0.0 0 0 773.57 645.13 Q 779.96 645.09 786.28 645.09 Z" />
   <path fill="#fff" d=" M 288.75 648.70 A 0.51 0.50 60.2 0 0 287.81 648.44 L 262.07 693.03 A 0.52 0.52 0.0 0 1 261.28 693.17 Q 259.17 691.41 257.94 689.56 Q 249.76 677.24 248.09 674.48 Q 236.37 655.04 232.28 648.13 A 0.61 0.60 29.9 0 0 231.15 648.43 L 231.15 698.12 A 0.42 0.41 -90.0 0 1 230.74 698.54 L 213.09 698.54 A 0.86 0.86 0.0 0 1 212.23 697.68 L 212.23 609.77 A 0.58 0.58 0.0 0 1 212.81 609.19 L 229.82 609.19 A 1.12 1.11 -14.7 0 1 230.79 609.75 L 260.02 660.38 A 0.40 0.40 0.0 0 0 260.72 660.37 Q 274.07 634.77 289.83 609.69 A 1.16 1.15 -74.0 0 1 290.81 609.14 L 307.30 609.14 A 0.39 0.38 -90.0 0 1 307.68 609.53 L 307.68 698.05 A 0.46 0.46 0.0 0 1 307.22 698.51 L 289.40 698.51 A 0.65 0.65 0.0 0 1 288.75 697.86 L 288.75 648.70 Z" />
   <rect fill="#fff" x="-9.48" y="-44.68" transform="translate(638.12,653.72) rotate(-0.1)" width="18.96" height="89.36" rx="0.32"/>
   <path fill="#fff" d=" M 337.2640 745.3140 A 27.13 26.50 -5.3 0 1 312.6978 774.2067 A 27.13 26.50 -5.3 0 1 283.2360 750.3260 A 27.13 26.50 -5.3 0 1 307.8022 721.4333 A 27.13 26.50 -5.3 0 1 337.2640 745.3140 Z M 326.9752 745.6988 A 16.81 16.56 -6.7 0 0 308.3479 731.2131 A 16.81 16.56 -6.7 0 0 293.5848 749.6212 A 16.81 16.56 -6.7 0 0 312.2121 764.1069 A 16.81 16.56 -6.7 0 0 326.9752 745.6988 Z" />
   <path fill="#fff" d=" M 578.99 745.61 L 597.75 745.61 A 0.45 0.44 0.0 0 1 598.20 746.05 L 598.20 766.00 A 3.03 3.01 -17.1 0 1 596.87 768.50 Q 589.34 773.63 581.06 774.16 C 554.62 775.88 541.82 742.90 563.29 726.74 C 572.82 719.57 586.36 719.54 595.91 726.88 A 0.73 0.72 -51.6 0 1 596.02 727.91 L 590.44 734.65 A 0.59 0.58 37.7 0 1 589.64 734.75 C 578.12 726.21 562.94 733.82 563.09 748.34 C 563.22 761.37 575.79 767.36 587.08 763.05 A 2.69 2.69 0.0 0 0 588.81 760.54 L 588.81 754.05 A 0.52 0.52 0.0 0 0 588.29 753.53 L 579.19 753.53 A 0.45 0.45 0.0 0 1 578.74 753.08 L 578.74 745.85 A 0.25 0.24 -0.0 0 1 578.99 745.61 Z" />
   <path fill="#fff" d=" M 658.9780 744.4632 A 26.89 26.50 -172.7 0 1 689.0172 721.5948 A 26.89 26.50 -172.7 0 1 712.3220 751.2968 A 26.89 26.50 -172.7 0 1 682.2828 774.1652 A 26.89 26.50 -172.7 0 1 658.9780 744.4632 Z M 702.34 747.69 A 16.70 16.70 0.0 0 0 685.64 730.99 A 16.70 16.70 0.0 0 0 668.94 747.69 A 16.70 16.70 0.0 0 0 685.64 764.39 A 16.70 16.70 0.0 0 0 702.34 747.69 Z" />
   <path fill="#fff" d=" M 416.43 773.53 A 0.60 0.60 0.0 0 1 415.89 772.67 Q 428.28 746.75 438.86 725.34 C 439.71 723.62 440.34 721.94 442.27 721.63 Q 443.78 721.39 444.60 722.99 Q 451.98 737.34 455.91 746.00 Q 460.22 755.51 462.28 759.45 Q 466.96 768.41 468.92 772.81 A 0.48 0.48 0.0 0 1 468.48 773.48 L 458.06 773.48 A 0.87 0.87 0.0 0 1 457.27 772.97 L 453.40 764.43 A 1.31 1.30 77.7 0 0 452.21 763.66 L 432.05 763.66 A 0.83 0.80 -74.3 0 0 431.35 764.07 L 426.28 772.86 A 1.35 1.34 -74.8 0 1 425.12 773.53 L 416.43 773.53 Z M 435.31 754.03 A 0.41 0.41 0.0 0 0 435.68 754.61 L 448.67 754.56 A 0.41 0.41 0.0 0 0 449.04 753.98 L 442.50 739.65 A 0.41 0.41 0.0 0 0 441.75 739.65 L 435.31 754.03 Z" />
   <path fill="#fff" d=" M 777.69 721.94 Q 781.28 722.02 789.95 722.13 Q 798.62 722.24 800.05 722.53 C 817.06 725.88 821.30 748.06 804.51 755.05 C 800.27 756.82 792.97 756.53 788.11 756.37 A 0.59 0.59 0.0 0 0 787.50 756.96 L 787.50 772.79 A 0.69 0.68 -0.0 0 1 786.81 773.47 L 777.55 773.47 A 0.49 0.49 0.0 0 1 777.06 772.98 L 777.06 722.56 A 0.62 0.61 -89.1 0 1 777.69 721.94 Z M 787.22 731.96 L 787.06 746.72 A 0.49 0.49 0.0 0 0 787.55 747.21 L 795.57 747.30 A 9.23 7.69 0.6 0 0 804.88 739.70 L 804.88 739.34 A 9.23 7.69 0.6 0 0 795.73 731.56 L 787.71 731.47 A 0.49 0.49 0.0 0 0 787.22 731.96 Z" />
   <path fill="#fff" d=" M 392.95 745.25 Q 386.05 754.94 379.14 766.19 A 2.65 2.63 -67.1 0 1 376.24 767.38 Q 374.71 766.98 373.52 765.20 Q 369.84 759.68 360.49 745.04 A 0.36 0.36 0.0 0 0 359.82 745.23 L 359.82 772.84 A 0.64 0.64 0.0 0 1 359.18 773.48 L 350.30 773.48 A 0.63 0.63 0.0 0 1 349.67 772.85 L 349.67 722.77 A 0.66 0.65 0.0 0 1 350.33 722.12 L 356.49 722.12 A 1.68 1.66 -15.9 0 1 357.91 722.90 L 376.65 753.39 A 0.51 0.50 -45.3 0 0 377.51 753.38 L 395.59 723.18 A 1.71 1.71 0.0 0 1 397.05 722.36 L 403.08 722.36 A 0.59 0.59 0.0 0 1 403.67 722.95 L 403.67 772.71 A 0.68 0.68 0.0 0 1 402.99 773.39 L 394.05 773.39 A 0.65 0.65 0.0 0 1 393.40 772.74 L 393.40 745.40 A 0.25 0.25 0.0 0 0 392.95 745.25 Z" />
   <path fill="#fff" d=" M 650.51 773.71 L 640.63 773.81 A 2.60 2.59 -29.2 0 1 639.21 773.41 Q 638.43 772.92 636.91 770.60 Q 632.02 763.16 627.46 755.40 A 1.48 1.46 74.4 0 0 626.20 754.68 L 622.57 754.68 A 0.74 0.74 0.0 0 0 621.83 755.42 L 621.83 773.17 A 0.46 0.46 0.0 0 1 621.37 773.63 L 612.38 773.63 A 0.60 0.60 0.0 0 1 611.78 773.03 L 611.78 722.56 A 0.41 0.40 -0.7 0 1 612.18 722.16 Q 624.99 721.92 632.93 722.42 C 642.96 723.04 649.25 729.82 648.83 739.99 Q 648.42 749.91 638.46 754.36 A 0.56 0.56 0.0 0 0 638.23 755.20 L 650.94 772.86 A 0.54 0.54 0.0 0 1 650.51 773.71 Z M 621.89 731.82 L 621.75 745.84 A 0.27 0.27 0.0 0 0 622.01 746.11 L 631.53 746.21 A 7.83 7.15 0.6 0 0 639.44 739.14 L 639.44 738.88 A 7.83 7.15 0.6 0 0 631.69 731.65 L 622.17 731.55 A 0.27 0.27 0.0 0 0 621.89 731.82 Z" />
   <path fill="#fff" d=" M 743.86 774.02 C 735.66 774.05 728.70 769.80 725.53 762.68 Q 723.57 758.29 723.68 746.51 Q 723.75 738.20 723.69 722.61 A 0.36 0.36 0.0 0 1 724.05 722.25 L 733.49 722.25 A 0.54 0.54 0.0 0 1 734.03 722.79 Q 734.13 749.13 734.28 754.26 C 734.44 759.96 737.98 764.08 743.82 764.06 C 749.66 764.04 753.16 759.88 753.28 754.19 Q 753.39 749.05 753.27 722.71 A 0.54 0.54 0.0 0 1 753.81 722.17 L 763.25 722.09 A 0.36 0.36 0.0 0 1 763.61 722.45 Q 763.68 738.04 763.82 746.35 Q 764.02 758.12 762.10 762.53 C 758.98 769.68 752.06 773.99 743.86 774.02 Z" />
   <path fill="#fff" d=" M 260.89 755.30 A 0.37 0.18 70.7 0 0 260.90 755.21 L 261.06 722.83 A 0.59 0.58 -89.5 0 1 261.64 722.25 L 270.79 722.25 A 0.58 0.58 0.0 0 1 271.37 722.83 L 271.37 773.14 A 0.54 0.54 0.0 0 1 270.83 773.68 L 262.56 773.68 A 2.32 2.30 -17.7 0 1 260.68 772.72 L 237.62 740.67 A 0.49 0.48 27.2 0 0 236.74 740.95 L 236.74 772.84 A 0.61 0.61 0.0 0 1 236.13 773.45 L 227.32 773.45 A 0.89 0.89 0.0 0 1 226.43 772.56 L 226.43 722.98 A 0.71 0.70 -0.0 0 1 227.14 722.28 L 234.80 722.28 A 1.88 1.87 72.8 0 1 236.35 723.10 Q 239.23 727.38 239.29 727.46 Q 242.86 731.77 260.03 755.23 Q 260.62 756.04 260.89 755.30 Z" />
   <path fill="#fff" d=" M 479.24 723.09 A 0.77 0.77 0.0 0 1 480.01 722.32 L 496.93 722.29 A 25.97 24.78 -0.1 0 1 522.94 747.02 L 522.94 748.72 A 25.97 24.78 -0.1 0 1 497.01 773.55 L 480.09 773.58 A 0.77 0.77 0.0 0 1 479.32 772.81 L 479.24 723.09 Z M 489.69 732.29 L 489.75 763.17 A 0.58 0.58 0.0 0 0 490.33 763.75 L 497.04 763.74 A 15.53 14.88 -0.1 0 0 512.54 748.83 L 512.54 746.55 A 15.53 14.88 -0.1 0 0 496.98 731.70 L 490.27 731.71 A 0.58 0.58 0.0 0 0 489.69 732.29 Z" />
   <ellipse fill="#000" cx="0.00" cy="0.00" transform="translate(310.28,747.66) rotate(-6.7)" rx="16.81" ry="16.56"/>
   <circle fill="#000" cx="685.64" cy="747.69" r="16.70"/>
   <path fill="#000" d=" M 489.69 732.29 A 0.58 0.58 0.0 0 1 490.27 731.71 L 496.98 731.70 A 15.53 14.88 -0.1 0 1 512.54 746.55 L 512.54 748.83 A 15.53 14.88 -0.1 0 1 497.04 763.74 L 490.33 763.75 A 0.58 0.58 0.0 0 1 489.75 763.17 L 489.69 732.29 Z" />
   <path fill="#000" d=" M 621.89 731.82 A 0.27 0.27 0.0 0 1 622.17 731.55 L 631.69 731.65 A 7.83 7.15 0.6 0 1 639.44 738.88 L 639.44 739.14 A 7.83 7.15 0.6 0 1 631.53 746.21 L 622.01 746.11 A 0.27 0.27 0.0 0 1 621.75 745.84 L 621.89 731.82 Z" />
   <path fill="#000" d=" M 787.22 731.96 A 0.49 0.49 0.0 0 1 787.71 731.47 L 795.73 731.56 A 9.23 7.69 0.6 0 1 804.88 739.34 L 804.88 739.70 A 9.23 7.69 0.6 0 1 795.57 747.30 L 787.55 747.21 A 0.49 0.49 0.0 0 1 787.06 746.72 L 787.22 731.96 Z" />
   <path fill="#000" d=" M 435.31 754.03 L 441.75 739.65 A 0.41 0.41 0.0 0 1 442.50 739.65 L 449.04 753.98 A 0.41 0.41 0.0 0 1 448.67 754.56 L 435.68 754.61 A 0.41 0.41 0.0 0 1 435.31 754.03 Z" />
  </g>
 </mask>
 <rect x="0" y="0" width="100" height="100" rx="22" fill="#1C2448"/>
 <g transform="translate(12.000 28.687) scale(0.128162) translate(-216.500 -247.200)">
   <path fill="#fafafb" d=" M 513.70 247.98 Q 512.42 251.37 515.24 256.25 A 1.50 1.47 -62.8 0 1 515.42 256.83 L 533.98 448.03 A 2.90 2.88 -75.5 0 0 535.20 450.12 L 559.50 466.98 A 1.82 1.82 0.0 0 0 561.79 466.80 L 638.90 392.92 L 648.07 384.23 A 1.37 1.36 48.6 0 1 650.06 384.36 L 809.53 577.90 A 0.19 0.18 -22.2 0 1 809.40 578.20 Q 802.52 578.64 796.34 577.70 C 790.68 571.93 784.28 565.96 779.18 560.80 Q 748.32 529.60 717.95 497.92 C 702.46 481.77 672.32 451.24 650.18 427.21 L 647.98 424.72 A 0.34 0.34 0.0 0 0 647.50 424.70 L 581.54 485.55 A 0.40 0.40 0.0 0 0 581.57 486.16 L 673.07 557.03 L 696.43 578.89 Q 686.30 575.07 676.58 569.43 Q 644.50 550.80 633.92 544.35 C 604.05 526.15 579.85 510.94 550.29 492.92 Q 531.49 481.45 513.35 469.59 A 0.43 0.42 43.5 0 0 512.88 469.60 Q 507.46 473.30 502.94 476.18 Q 433.57 520.36 369.05 558.54 Q 353.42 567.79 338.96 575.22 Q 334.51 577.51 329.74 579.03 Q 329.24 579.19 329.07 578.69 Q 328.98 578.42 329.40 578.15 Q 339.42 567.29 350.67 557.83 C 362.59 549.01 374.90 539.42 386.08 531.03 Q 408.84 513.95 439.40 489.67 Q 441.40 488.08 443.93 486.17 A 0.74 0.74 0.0 0 0 443.97 485.02 Q 411.28 456.23 378.96 425.10 A 0.98 0.96 -42.9 0 0 377.65 425.06 Q 376.69 425.89 376.53 426.72 L 242.43 565.45 L 230.66 577.64 A 1.70 1.69 -68.0 0 1 229.44 578.16 L 216.70 578.16 A 0.25 0.25 0.0 0 1 216.51 577.75 L 375.96 384.98 A 1.31 1.31 0.0 0 1 377.81 384.80 L 385.84 391.44 A 1.24 1.23 -48.8 0 0 387.54 391.32 Q 399.88 377.92 406.43 370.43 Q 451.94 318.38 470.59 296.60 Q 495.82 267.13 504.79 256.81 Q 508.61 252.42 512.42 247.33 A 0.56 0.56 0.0 0 1 513.17 247.21 Q 513.72 247.60 513.70 247.98 Z" />
   <path fill="#9699a5" d=" M 513.70 247.98 Q 526.85 264.53 539.95 280.05 Q 563.69 308.16 587.69 336.06 Q 609.03 360.88 638.90 392.92 L 561.79 466.80 A 1.82 1.82 0.0 0 1 559.50 466.98 L 535.20 450.12 A 2.90 2.88 -75.5 0 1 533.98 448.03 L 515.42 256.83 A 1.50 1.47 -62.8 0 0 515.24 256.25 Q 512.42 251.37 513.70 247.98 Z" />
   <path fill="#184e8d" d=" M 650.18 427.21 Q 649.41 426.95 649.07 427.42 Q 648.78 427.83 648.96 428.61 Q 650.95 437.13 652.05 445.51 C 653.60 457.40 655.94 465.80 657.81 477.39 C 659.50 487.84 662.54 500.44 664.21 509.56 C 666.82 523.75 670.10 536.87 673.64 551.68 Q 674.25 554.20 673.07 557.03 L 581.57 486.16 A 0.40 0.40 0.0 0 1 581.54 485.55 L 647.50 424.70 A 0.34 0.34 0.0 0 1 647.98 424.72 L 650.18 427.21 Z" />
   <path fill="#184e8d" d=" M 350.67 557.83 Q 349.49 557.60 349.16 557.72 A 0.78 0.78 0.0 0 1 348.16 556.70 Q 349.85 552.48 350.65 548.98 Q 357.75 518.19 371.09 453.96 Q 372.00 449.57 372.87 443.77 Q 374.04 435.99 374.86 433.62 Q 376.60 428.60 376.53 426.72 Q 376.69 425.89 377.65 425.06 A 0.98 0.96 -42.9 0 1 378.96 425.10 Q 411.28 456.23 443.97 485.02 A 0.74 0.74 0.0 0 1 443.93 486.17 Q 441.40 488.08 439.40 489.67 Q 408.84 513.95 386.08 531.03 C 374.90 539.42 362.59 549.01 350.67 557.83 Z" />
   <path fill="#1b2f5d" d=" M 376.53 426.72 Q 376.60 428.60 374.86 433.62 Q 374.04 435.99 372.87 443.77 Q 372.00 449.57 371.09 453.96 Q 357.75 518.19 350.65 548.98 Q 349.85 552.48 348.16 556.70 A 0.78 0.78 0.0 0 0 349.16 557.72 Q 349.49 557.60 350.67 557.83 Q 339.42 567.29 329.40 578.15 Q 323.03 578.83 318.99 578.79 Q 289.86 578.53 251.27 578.72 Q 245.42 578.75 235.50 578.06 A 0.34 0.34 0.0 0 1 235.23 577.56 C 235.78 576.54 236.29 575.28 237.02 574.45 Q 240.58 570.37 242.43 565.45 L 376.53 426.72 Z" />
   <path fill="#1b2f5d" d=" M 650.18 427.21 C 672.32 451.24 702.46 481.77 717.95 497.92 Q 748.32 529.60 779.18 560.80 C 784.28 565.96 790.68 571.93 796.34 577.70 Q 790.32 578.45 788.06 578.52 C 767.76 579.11 744.54 578.46 727.27 578.63 Q 711.62 578.79 696.43 578.89 L 673.07 557.03 Q 674.25 554.20 673.64 551.68 C 670.10 536.87 666.82 523.75 664.21 509.56 C 662.54 500.44 659.50 487.84 657.81 477.39 C 655.94 465.80 653.60 457.40 652.05 445.51 Q 650.95 437.13 648.96 428.61 Q 648.78 427.83 649.07 427.42 Q 649.41 426.95 650.18 427.21 Z" />
   <path fill="#184e8d" d=" M 516.54 493.07 Q 519.89 501.78 522.15 512.11 Q 528.29 540.24 537.47 579.25 L 447.30 578.90 A 0.31 0.31 0.0 0 1 447.06 578.39 Q 454.86 568.42 476.64 540.03 Q 482.61 532.24 490.85 520.51 C 499.53 508.15 503.97 501.56 508.76 495.72 Q 511.14 492.83 513.06 489.04 A 0.73 0.73 0.0 0 1 514.35 489.02 L 516.54 493.07 Z" />
   <path fill="#1b2f5d" d=" M 537.47 579.25 Q 528.29 540.24 522.15 512.11 Q 519.89 501.78 516.54 493.07 Q 520.47 495.50 522.90 498.60 Q 526.06 502.64 534.33 514.26 Q 544.21 528.17 550.86 536.47 Q 555.23 541.94 561.64 550.88 C 566.15 557.19 572.89 564.88 578.05 572.25 Q 580.64 575.95 583.60 579.25 A 0.30 0.30 0.0 0 1 583.36 579.75 Q 564.55 578.77 545.19 579.40 C 542.89 579.47 540.04 579.20 537.47 579.25 Z" />
 </g>
 <rect x="124.0" y="11.0" width="284.7" height="78" fill="#1C2448" mask="url(#wm)"/>
</svg>